HIERARCHY
ROOT SpineBase
{
  OFFSET 0.000000 0.000000 0.000000
  CHANNELS 6 Xposition Yposition Zposition Zrotation Xrotation Yrotation
  JOINT SpineMid
  {
    OFFSET 0.000000 31.506734 0.000000
    CHANNELS 3 Zrotation Xrotation Yrotation
    JOINT SpineShoulder
    {
      OFFSET -0.064048 23.351531 -0.815454
      CHANNELS 3 Zrotation Xrotation Yrotation
      JOINT Neck
      {
        OFFSET -0.043750 7.708144 -0.611061
        CHANNELS 3 Zrotation Xrotation Yrotation
        JOINT Head
        {
          OFFSET 4.380690 13.392302 -0.185266
          CHANNELS 3 Zrotation Xrotation Yrotation
          End Site
          {
            OFFSET 0 0 0
          }
        }
      }
      JOINT ShoulderLeft
      {
        OFFSET -15.420857 -3.102480 -6.699648
        CHANNELS 3 Zrotation Xrotation Yrotation
        JOINT ElbowLeft
        {
          OFFSET -5.080357 -21.484809 -2.427155
          CHANNELS 3 Zrotation Xrotation Yrotation
          JOINT WristLeft
          {
            OFFSET 22.400368 -1.011996 -13.643814
            CHANNELS 3 Zrotation Xrotation Yrotation
            JOINT HandLeft
            {
              OFFSET 6.027721 -0.153784 -3.308969
              CHANNELS 3 Zrotation Xrotation Yrotation
              JOINT HandTipLeft
              {
                OFFSET 4.188705 0.593834 -3.959093
                CHANNELS 3 Zrotation Xrotation Yrotation
                End Site
                {
                  OFFSET 0 0 0
                }
              }
              JOINT ThumbLeft
              {
                OFFSET 2.399016 -4.716341 -0.868140
                CHANNELS 3 Zrotation Xrotation Yrotation
                End Site
                {
                  OFFSET 0 0 0
                }
              }
            }
          }
        }
      }
      JOINT ShoulderRight
      {
        OFFSET 16.875162 -3.955838 6.663012
        CHANNELS 3 Zrotation Xrotation Yrotation
        JOINT ElbowRight
        {
          OFFSET -4.413898 -18.894411 -20.419037
          CHANNELS 3 Zrotation Xrotation Yrotation
          JOINT WristRight
          {
            OFFSET 2.144959 -11.066763 -17.599619
            CHANNELS 3 Zrotation Xrotation Yrotation
            JOINT HandRight
            {
              OFFSET -0.801046 2.361950 1.171990
              CHANNELS 3 Zrotation Xrotation Yrotation
              JOINT HandTipRight
              {
                OFFSET -0.802957 3.157628 -2.401284
                CHANNELS 3 Zrotation Xrotation Yrotation
                End Site
                {
                  OFFSET 0 0 0
                }
              }
              JOINT ThumbRight
              {
                OFFSET -0.569673 -3.429376 1.403616
                CHANNELS 3 Zrotation Xrotation Yrotation
                End Site
                {
                  OFFSET 0 0 0
                }
              }
            }
          }
        }
      }
    }
  }
  JOINT HipLeft
  {
    OFFSET -7.394120 1.421697 -5.884183
    CHANNELS 3 Zrotation Xrotation Yrotation
    JOINT KneeLeft
    {
      OFFSET -5.974299 -31.462671 2.918056
      CHANNELS 3 Zrotation Xrotation Yrotation
      JOINT AnkleLeft
      {
        OFFSET -2.256371 -32.824991 11.819924
        CHANNELS 3 Zrotation Xrotation Yrotation
        JOINT FootLeft
        {
          OFFSET 4.091927 -3.551031 -13.375328
          CHANNELS 3 Zrotation Xrotation Yrotation
          End Site
          {
            OFFSET 0 0 0
          }
        }
      }
    }
  }
  JOINT HipRight
  {
    OFFSET 6.985792 0.106981 -1.552890
    CHANNELS 3 Zrotation Xrotation Yrotation
    JOINT KneeRight
    {
      OFFSET -0.697985 -31.814830 5.325182
      CHANNELS 3 Zrotation Xrotation Yrotation
      JOINT AnkleRight
      {
        OFFSET -3.979195 -30.607923 11.511546
        CHANNELS 3 Zrotation Xrotation Yrotation
        JOINT FootRight
        {
          OFFSET 3.917803 -3.578877 -13.379593
          CHANNELS 3 Zrotation Xrotation Yrotation
          End Site
          {
            OFFSET 0 0 0
          }
        }
      }
    }
  }
}
MOTION
Frames: 6
Frame Time: 0.033333
19.330022 70.073830 336.228123 -0.000000 0.000000 -16.762531 0.000000 0.000000 16.762531 -0.000000 0.000000 0.000000 -0.000000 0.000000 0.000000 0.000000 0.000000 0.000000 -0.000000 0.000000 0.000000 -0.000000 0.000000 0.000000 -0.000000 0.000000 0.000000 -0.000000 0.000000 0.000000 0.000000 0.000000 0.000000 0.000000 0.000000 0.000000 -0.000000 0.000000 0.000000 -0.000000 0.000000 0.000000 -0.000000 0.000000 0.000000 -0.000000 0.000000 0.000000 0.000000 0.000000 0.000000 0.000000 0.000000 0.000000 0.000000 0.000000 16.762531 -0.000000 0.000000 0.000000 -0.000000 0.000000 0.000000 0.000000 0.000000 0.000000 0.000000 0.000000 16.762531 -0.000000 0.000000 0.000000 -0.000000 0.000000 0.000000 0.000000 0.000000 0.000000
19.273302 70.064192 335.999567 0.031841 0.032825 -15.950553 -0.021594 -0.040311 15.950537 -0.000000 0.000000 0.000000 -0.000000 0.000000 0.000000 0.000000 0.000000 0.000000 -0.000000 0.000000 0.000000 -0.000000 0.000000 0.000000 -2.342005 -1.286660 1.412713 0.025599 -0.574221 -3.227157 0.000000 0.000000 0.000000 0.000000 0.000000 0.000000 3.337725 -10.887274 -0.829980 -3.194679 25.468214 2.794692 75.645994 -66.052903 6.760604 -52.128856 2.944917 53.807764 0.000000 0.000000 0.000000 0.000000 0.000000 0.000000 -0.021594 -0.040311 15.950537 -0.000000 0.000000 0.000000 -0.000000 0.000000 0.000000 0.000000 0.000000 0.000000 -0.021594 -0.040311 15.950537 -0.000000 0.000000 0.000000 -0.000000 0.000000 0.000000 0.000000 0.000000 0.000000
19.206970 70.062463 335.785183 0.062106 0.066343 -15.270097 -0.042441 -0.080357 15.270031 -0.000000 0.000000 0.000000 -0.000000 0.000000 0.000000 0.000000 0.000000 0.000000 -0.000000 0.000000 0.000000 -1.071143 -0.633935 0.561627 -3.339604 -1.812709 2.208679 -0.366003 -1.215933 -6.266859 0.000000 0.000000 0.000000 0.000000 0.000000 0.000000 6.795106 -22.256242 -0.967232 -9.770583 49.480893 8.428902 145.469838 -64.619596 68.471697 -48.222536 -2.834863 64.648266 0.000000 0.000000 0.000000 0.000000 0.000000 0.000000 -0.042441 -0.080357 15.270031 -0.000000 0.000000 0.000000 -0.260653 0.157976 1.161153 0.000000 0.000000 0.000000 -0.042441 -0.080357 15.270031 -0.000000 0.000000 0.000000 -0.266079 0.157418 1.164368 0.000000 0.000000 0.000000
19.131029 70.068645 335.584971 0.090810 0.100568 -14.719215 -0.062277 -0.120341 14.719070 -0.000000 0.000000 0.000000 0.967211 -0.541485 0.195602 0.000000 0.000000 0.000000 -0.000000 0.000000 0.000000 -1.450990 -0.859891 0.838466 -4.726347 -2.622470 3.200156 -1.018667 -1.838111 -8.941238 0.000000 0.000000 0.000000 0.000000 0.000000 0.000000 10.208716 -32.662706 -0.330032 -25.578306 68.074635 23.389960 165.943535 -54.645407 87.832170 -41.439992 -3.047641 67.286286 0.000000 0.000000 0.000000 0.000000 0.000000 0.000000 -0.062277 -0.120341 14.719070 -0.000000 0.000000 0.000000 -0.358680 0.218695 1.597876 0.000000 0.000000 0.000000 -0.062277 -0.120341 14.719070 -0.000000 0.000000 0.000000 -0.366016 0.218215 1.602022 0.000000 0.000000 0.000000
19.045476 70.082735 335.398931 0.117965 0.135517 -14.296161 -0.080848 -0.160450 14.295909 -0.000000 0.000000 0.000000 1.298376 -0.709084 0.258882 0.000000 0.000000 0.000000 -0.000000 0.000000 0.000000 -1.727708 -1.024206 1.114386 -5.909602 -3.342234 4.115178 -1.715142 -2.367312 -11.062989 0.000000 0.000000 0.000000 0.000000 0.000000 0.000000 13.373485 -41.036096 0.928480 -65.057917 77.049501 62.661499 176.083055 -48.345331 97.946032 -38.022817 -0.820063 67.663279 0.000000 0.000000 0.000000 0.000000 0.000000 0.000000 0.683518 -0.506094 14.460685 -0.653866 0.525523 -0.157332 -0.434887 0.267991 1.939099 0.000000 0.000000 0.000000 -0.080848 -0.160450 14.295909 0.452886 -0.931356 0.294346 -0.890523 1.203687 1.664011 0.000000 0.000000 0.000000
18.950314 70.104736 335.227064 0.143582 0.171208 -13.999466 -0.097900 -0.200857 13.999080 -0.000000 0.000000 0.000000 1.634174 -0.870377 0.321196 0.000000 0.000000 0.000000 -0.000000 0.000000 0.000000 -1.901852 -1.126210 1.390299 -6.884921 -3.957759 4.955933 -2.218813 -2.754069 -12.469603 0.000000 0.000000 0.000000 0.000000 0.000000 0.000000 16.026521 -47.011134 2.464921 -101.148586 75.440512 99.493113 -175.266639 -45.762624 106.917357 -37.591237 3.208941 67.081568 0.000000 0.000000 0.000000 0.000000 0.000000 0.000000 0.836551 -0.609550 14.199003 -0.805704 0.625338 -0.188918 -0.489128 0.306295 2.185102 0.000000 0.000000 0.000000 -0.097900 -0.200857 13.999080 0.555006 -1.206950 0.370264 -1.044319 1.520308 1.841928 0.000000 0.000000 0.000000
